<?xml version="1.0" encoding="UTF-8" standalone="no"?>
<!-- Created with Inkscape (http://www.inkscape.org/) -->

<svg
   xmlns:dc="http://purl.org/dc/elements/1.1/"
   xmlns:cc="http://creativecommons.org/ns#"
   xmlns:rdf="http://www.w3.org/1999/02/22-rdf-syntax-ns#"
   xmlns:svg="http://www.w3.org/2000/svg"
   xmlns="http://www.w3.org/2000/svg"
   xmlns:sodipodi="http://sodipodi.sourceforge.net/DTD/sodipodi-0.dtd"
   xmlns:inkscape="http://www.inkscape.org/namespaces/inkscape"
   width="744.09448819"
   height="1052.3622047"
   id="svg2"
   version="1.1"
   inkscape:version="0.48.3.1 r9886"
   sodipodi:docname="girl_smirking.svg">
  <defs
     id="defs4">
    <filter
       inkscape:collect="always"
       id="filter3768">
      <feGaussianBlur
         inkscape:collect="always"
         stdDeviation="0.12221775"
         id="feGaussianBlur3770" />
    </filter>
  </defs>
  <sodipodi:namedview
     id="base"
     pagecolor="#ffffff"
     bordercolor="#666666"
     borderopacity="1.0"
     inkscape:pageopacity="0.0"
     inkscape:pageshadow="2"
     inkscape:zoom="1.6446056"
     inkscape:cx="342.51031"
     inkscape:cy="727.28052"
     inkscape:document-units="px"
     inkscape:current-layer="layer1"
     showgrid="false"
     inkscape:window-width="1391"
     inkscape:window-height="876"
     inkscape:window-x="49"
     inkscape:window-y="24"
     inkscape:window-maximized="1" />
  <metadata
     id="metadata7">
    <rdf:RDF>
      <cc:Work
         rdf:about="">
        <dc:format>image/svg+xml</dc:format>
        <dc:type
           rdf:resource="http://purl.org/dc/dcmitype/StillImage" />
        <dc:title />
      </cc:Work>
    </rdf:RDF>
  </metadata>
  <g
     inkscape:groupmode="layer"
     id="layer3"
     inkscape:label="hair"
     sodipodi:insensitive="true">
    <path
       style="fill:#214e96;fill-opacity:0.67264572;stroke:#000000;stroke-width:3;stroke-linecap:butt;stroke-linejoin:round;stroke-miterlimit:4;stroke-opacity:0.53363229;stroke-dasharray:none"
       d="m 300.98401,140.89747 c -25.88682,4.22288 -46.44554,19.96083 -57.76461,56.54851 -1.69603,43.55896 0.48907,84.5305 8.51268,121.6097 -1.70396,27.24504 -3.42229,51.7643 -8.51268,60.19681 0.46172,27.95413 -1.5223,56.60704 9.72878,81.4785 l 211.60088,43.17144 c 4.38733,-25.55238 7.86093,-51.2875 4.25634,-78.43826 -1.09332,-36.25359 -6.81185,-70.96545 -17.63341,-103.97629 -20.477,-30.15146 -21.11317,-42.70494 -29.18633,-65.06119 -8.21744,-22.75582 -10.07196,-47.197 -19.45755,-69.92558 -9.21103,-14.97045 -20.83043,-28.40129 -38.9151,-37.69901 -18.57662,-9.53401 -40.97642,-7.5985 -62.629,-7.90463 z"
       id="path3844"
       inkscape:connector-curvature="0"
       sodipodi:nodetypes="ccccccccaccc" />
  </g>
  <g
     inkscape:label="Sketch"
     inkscape:groupmode="layer"
     id="layer1"
     style="display:inline">
    <path
       style="fill:#854040;fill-opacity:1"
       d="m 260.05451,410.57584 c 5.19739,-11.0199 3.33458,-17.99183 8.89583,-14.43853 6.59462,-6.3696 9.98404,-38.42477 11.71417,-20.85248 9.18755,3.77069 -2.3138,-19.09812 7.20718,-22.60221 1.94644,11.59 3.34803,19.52873 6.36095,24.18386 -11.34389,27.07936 19.22521,-16.62452 6.94092,9.51239 5.95329,0.0461 -13.47737,14.16785 5.35038,16.2796 7.40982,11.81086 24.65193,-2.31904 20.00072,-5.29945 1.23261,-2.33879 24.79704,-21.50393 13.46684,-20.99256 12.49701,-13.1661 13.42377,9.13069 -3.4586,25.23911 -10.97748,15.97845 27.95556,1.88076 37.11343,1.45691 22.55149,-8.85305 -16.7459,17.23058 3.81193,10.55419 4.29905,6.78752 11.72684,-3.46545 3.91219,-3.67271 6.27267,-2.90164 26.84113,-25.87479 14.97502,-22.52169 -3.09238,-9.21354 0.39843,-40.49586 4.03229,-9.1964 0.97456,8.85044 17.78801,-16.62998 7.59687,8.41708 0.42337,13.32621 -19.14829,35.42825 6.31604,38.54883 12.78552,10.54581 17.41469,17.7949 20.0311,-4.26027 2.91506,-9.47976 18.87707,-36.44755 7.56657,-36.27938 -23.93484,6.86424 8.80174,-5.35651 6.81277,-8.95995 7.18069,-6.36775 2.17515,-43.66008 -22.9847,-41.54902 -17.39119,-10.46456 -22.44044,5.85387 -29.26534,13.05603 3.00826,-6.5905 6.34837,-31.5674 11.28978,-28.00102 -8.497,14.52585 -0.28245,-20.25979 48.20097,16.92206 9.10249,15.99433 6.89577,29.98366 5.28882,27.85104 -1.99579,12.98333 -4.48172,18.08719 -8.05577,35.41449 -11.25101,218.28971 -248.91865,98.4857 -193.12036,11.19008 z m 136.02442,93.14836 c -9.35745,-12.0241 21.83224,9.22298 6.32005,-4.01178 8.12234,0.42059 5.72671,-12.68471 -2.32469,-0.82125 -15.68956,4.8374 -32.60985,-11.10983 -36.67405,-31.04508 3.30057,-12.33868 -22.65467,-6.66947 -27.87102,-14.96083 13.93664,-1.49543 -16.78905,-0.40998 -16.92097,-1.2688 -2.85605,-0.3942 -27.23233,-7.81455 -33.55367,-10.95876 13.14924,-0.79268 32.6867,5.6222 39.15593,1.66267 -3.52071,-5.54772 -28.29274,-24.66833 -29.25104,-18.37212 15.07099,12.8636 9.51788,26.73391 -3.82739,8.48189 -2.95068,8.66245 -12.86954,-17.54095 -12.95291,-17.43107 -10.94713,-19.96508 -9.23095,7.2428 -13.96458,20.56918 -1.73944,-0.48659 18.48366,23.60865 8.37848,6.58015 -5.42425,-11.43128 5.91849,6.27968 1.43383,-7.34238 4.62125,24.50415 34.14404,24.69533 42.27377,33.81044 14.96291,11.24065 36.28176,15.92624 53.10755,26.07419 4.654,0.37373 30.118,17.76921 26.67071,9.03355 z m -91.30818,-54.79085 c 5.59053,-0.8633 -1.71937,1.71436 0,0 z m -34.2647,-18.56689 c -5.04337,-8.14619 9.31117,-20.29979 2.39453,-1.16271 0.294,1.61223 -3.57515,5.97168 -2.39453,1.16271 z m 8.56617,-4.62915 c -6.00244,-8.61526 8.57992,6.34489 0,0 z m -22.25301,14.8829 c -174.861097,407.82798 -87.43055,203.91399 0,0 z m 152.12373,55.74625 c -2.02828,-3.4715 -2.13932,7.67887 0,0 z m -20.98469,-1.85699 c -10.67532,-5.93241 -3.46147,4.21384 0,0 z m 11,-0.50964 c -4.90315,-4.59698 -7.05774,7.03097 0,-3e-5 z m -6.98083,-4.86027 c -13.45239,-4.12145 0.0472,6.92304 0,0 z m 19.65617,0.81891 c 3.21971,-8.97052 -6.66855,1.66808 0,0 z m -37.67164,-4.83805 c -8.79244,-6.61379 4.97535,8.16845 0,0 z m 11.78935,-0.50394 c 4.67994,-9.40818 -21.27993,-21.53457 -10.55614,-10.39871 -9.73357,1.19764 6.60012,17.70257 10.55614,10.39871 z m 12.47465,1.08433 c 2.08569,-21.23899 -3.80383,7.48678 0,0 z m 13.50097,-0.83433 c 9.52411,-12.09388 3.31561,-13.35089 -3.75855,-4.64497 -1.46137,0.4973 1.52552,10.22669 3.75855,4.64497 z m -0.22596,-4.1809 c 3.72671,-8.44082 0.80091,4.10379 0,0 z m -1.66317,-9.64357 c 5.44603,-13.23068 -8.4883,8.88892 0,0 z m -40.35308,-1.23242 c -4.34968,1.18781 -1.93312,2.83009 0,0 z m 36.97354,-1.19315 c -1.51654,-3.80867 -3.05358,3.16631 0,0 z m -7.5,-0.94424 c -4.61325,-8.92503 -6.42379,-3.83072 -0.25,0.92617 z m -21,-0.44877 c -4.94959,-4.33265 -2.04643,2.18311 0,0 z m 26.02006,-6.08284 c -5.53007,-9.7457 -30.83065,-29.24089 -5.16691,-14.19556 19.86452,12.6019 -24.70253,-32.30329 -21.85181,-3.95416 -12.19479,21.31724 19.97601,1.86358 27.01872,18.14972 z m 16.19227,-3.02417 c 6.11221,-9.19226 10.43504,-19.10752 -2.78612,-13.6194 -3.45106,-2.88795 2.07537,22.96012 2.78612,13.6194 z m -11.55642,-3.9922 c -5.98967,-8.7781 1.43449,8.33511 0,0 z m -60.65591,0.49744 c -6.61142,-6.67834 -6.26583,3.89999 0,0 z m 24.003,-6.25524 c 0.49163,-14.00381 7.77669,-18.25354 9.6345,-27.75 -19.79065,10.51336 -13.57527,22.83536 -28.21389,27.39364 -5.57136,2.22893 20.84999,8.64221 18.57939,0.35636 z m -5.01214,0.76101 c 7.20075,-3.61206 -2.18762,5.09334 0,0 z m -6.99086,-1.51101 c 2.55494,-3.58745 2.55494,3.58745 0,0 z m 35.97994,1.47583 c -5.33945,-3.72833 2.35966,4.6636 0,0 z m -44.85238,-1.22583 c 3.08913,-4.50194 -5.58128,5.32311 0,0 z m -3.74928,-3.25 c 6.05474,-4.2649 23.21624,-20.51519 17.85942,-20.3815 -12.28961,4.36677 -41.38008,11.19414 -20.92375,23.2065 z m 67.35089,3.39583 c -3.68154,-1.13412 -1.83703,1.74158 0,0 z m -79.72917,-1.45485 c 6.22621,-3.32382 -7.63366,1.04666 0,2e-5 z m 78.55747,-2.44337 c -5.0048,-15.67205 -6.12074,9.73236 0,0 z m -6.95632,-7.99761 c -2.82673,-2.16073 -4.43278,-3.40028 -11.6591,-0.9352 2.71871,2.55112 13.28296,10.75268 11.6591,0.9352 z m -69.60115,3.55902 c -1.97302,-5.3582 -2.65779,3.53786 0,0 z m -75,-1.62476 c -178.287124,409.541 -89.14356,204.7705 0,0 z m 157.25,-1.6287 c -9.09862,-5.29942 4.90618,6.63904 0,0 z m -89.52322,-1.93669 c -223.43831,411.91793 -111.71916,205.95896 0,0 z m -30.72678,-3.25224 c -5.27667,-3.08004 -5.28772,1.71624 0,0 z m 59.93765,-6.367 c 19.87086,-17.24311 -29.61815,13.97498 0,0 z m 27.74444,1.50037 c 8.68015,-9.64211 -6.03301,-6.74132 -1.81056,1.2003 z m -101.68209,-6.25 c -2.36366,-8.66117 -2.36366,8.66117 0,0 z m -19.01531,-1.58333 c -4.41728,-2.52795 -0.97026,6.45424 0,0 z m 0.0153,-4.91667 c -2.55494,-3.58745 -2.55494,3.58745 0,0 z m 0,-3.18153 c -0.3284,-13.47141 -7.94874,10.23987 0,0 z m 17.6525,-4.39934 c 10.59048,-21.79566 -12.05792,-5.70716 -0.0698,3.40738 z m 117.72906,0.0289 c 0.0829,-4.20925 -2.96714,4.98625 0,0 z m -127.07363,-4.4947 c 8.54883,-16.37886 -11.72534,7.19872 0,0 z m 4.19208,-17.95333 c -1.20936,-3.65615 -2.46629,3.56228 0,0 z m 18.49998,-80.54133 c 30.59476,29.49966 90.45472,-19.95858 80.49468,-41.72156 64.60554,71.44963 -37.5903,48.26276 -37.5903,48.26276 -19.24894,1.54894 -2.56744,39.75971 -27.17219,32.66552 -11.00774,-9.13482 -3.72312,0.11225 4.4884,-3.58308 13.66421,-9.66281 -9.89908,-42.13386 -11.05909,-25.65681 -0.83679,-0.26651 -53.40613,-22.67727 -9.1615,-9.96683 z m 64.00003,82.83477 c 18.47541,-11.25533 -12.25588,-3.51827 4.5,-17.7934 -2.90921,22.68126 30.4236,-24.85629 14.34474,1.81165 -6.06319,2.86007 -12.70409,17.5072 -18.84474,15.98175 z m -6.49722,-10.54341 c 18.80953,-61.81886 76.64366,-105.03902 14.10244,-37.08457 -23.86701,28.08187 40.73027,-7.51792 9.21943,11.57902 -17.8498,3.0934 -22.85804,11.27667 -23.32187,25.50555 z m -75.99788,-10.74207 c -0.0139,-8.52245 2.90311,2.10916 0,0 z m 26.49511,-4.12467 c 7.85864,-9.73541 2.66153,8.06834 0,0 z m 32.51362,-4.86129 c -12.96911,-3.78934 -18.92219,-11.26893 -1.21396,-3.31396 5.22072,2.01312 8.7019,4.25473 1.21396,3.31396 z m -34.24182,-5.62718 c 6.12631,-13.95928 6.91215,-3.16656 0,0 z m -20.23853,-5.56153 c 1.07537,-2.74817 9.44173,-35.19131 6.78399,-12.66915 -4.07694,5.55736 1.49263,13.64387 -6.78399,12.66915 z m 73.96673,-0.16001 c -241.62047,472.04832 -120.81024,236.02416 0,0 z m -64.48751,-4.65311 c -13.57801,-1.75585 50.09571,-1.2845 0,0 z m 136.8845,-0.18688 c 2.57351,-3.24101 5.32732,3.07418 0,0 z M 278.50321,267.75812 c -189.317097,523.06938 -94.65855,261.53469 0,0 z m 96.27496,-13.6066 c 5.66453,-24.12383 -15.59964,-48.28965 -42.83238,-33.60888 -12.24264,8.48796 -18.76138,11.4451 -29.25458,23.84495 31.95588,-77.74784 33.75246,-23.82855 44.28006,-30.53173 16.40691,-3.46414 28.1402,-7.12758 25.53917,-5.82713 4.3234,9.01567 8.63851,39.36889 2.26773,46.12279 z"
       id="path3015"
       inkscape:connector-curvature="0"
       sodipodi:nodetypes="ccccccccccccccccccccccccccccccccccccccccccccccccccccccccccccccccccccccccccccccccccccccccccccccccccccccccccccccccccccccccccccccccccccccccccccccccccccccccccccccccccccccccccccccccccccccccccccccccccccc" />
  </g>
  <g
     inkscape:groupmode="layer"
     id="layer2"
     inkscape:label="face"
     sodipodi:insensitive="true">
    <path
       style="fill:#d0a979;fill-opacity:0.67264572;stroke:#000000;stroke-width:2.5999999;stroke-linecap:round;stroke-linejoin:round;stroke-miterlimit:4;stroke-opacity:1;stroke-dasharray:none"
       d="m 323.48181,317.23154 c -7.0939,0.0558 -14.1878,-6.55259 -21.2817,-10.94487 l -11.55292,-6.68854 c -14.36048,-21.6338 -27.69071,-47.94169 -34.05072,-80.87045 -1.32847,-18.74974 0.9578,-36.98308 10.94487,-54.11631 21.76149,-21.47865 26.77115,-15.73558 36.48291,-17.63341 16.23279,-2.55011 33.08328,-2.21765 54.11632,17.63341 10.51653,28.46574 21.21726,56.90517 20.67365,86.95093 0.0682,12.31883 -3.86528,23.70912 -10.33682,33.44267 -5.67512,9.32341 -11.55293,14.39048 -18.84951,18.8495 -14.4463,8.81488 -22.72799,13.98386 -26.14608,13.37707 z"
       inkscape:connector-curvature="0"
       sodipodi:nodetypes="ccccccccccc"
       id="path11" />
  </g>
  <g
     inkscape:groupmode="layer"
     id="layer4"
     inkscape:label="tophair"
     sodipodi:insensitive="true">
    <path
       style="fill:#214e96;fill-opacity:1;stroke:#000000;stroke-width:3;stroke-linecap:butt;stroke-linejoin:round;stroke-miterlimit:4;stroke-opacity:0.36322871;stroke-dasharray:none;stroke-dashoffset:0;filter:url(#filter3768)"
       d="m 331.99448,193.18964 -21.88974,49.25193 -23.71389,17.63341 1.82414,111.88092 -32.22657,76.61412 c -18.91598,-58.86792 -4.34506,-135.43175 -14.59316,-213.42503 2.81917,-21.80264 -2.68134,-45.87427 16.41731,-63.23705 5.05213,-14.99098 20.69448,-28.58266 46.81974,-32.22657 32.40424,0.98288 59.82028,3.96104 68.10142,14.59317 l 31.01048,33.44267 c 10.07285,28.34258 15.66581,51.30929 17.63341,69.92557 -15.91727,70.23249 -45.0606,65.11828 -58.98071,108.84069 l -13.98512,-58.98071 31.01048,-44.38754 -6.08049,-51.07607 -42.56339,10.94487 z"
       id="path3859"
       inkscape:connector-curvature="0"
       sodipodi:nodetypes="ccccccccccccccccc" />
  </g>
  <g
     inkscape:groupmode="layer"
     id="layer5"
     inkscape:label="features"
     style="display:inline"
     sodipodi:insensitive="true">
    <path
       style="fill:#854040;fill-opacity:1"
       d="m 307.67694,291.23815 c 6.45709,-4.87766 33.41916,-4.78316 42.74219,-15.94848 -2.61509,19.32636 -28.26872,14.52068 -42.74219,15.94845 z M 298.575,276.86646 c -4.71913,-4.53564 5.30541,-44.35341 4.98429,-14.07534 -3.58889,6.18349 9.3617,23.94903 -4.98429,14.07534 z m 36.35569,-32.25 c 15.18416,-3.90079 -0.5459,-11.98899 -10.43258,-0.11515 -4.20082,-1.48218 23.72187,-24.18494 18.21235,-12.15678 5.90482,-4.97934 34.80495,-6.43864 19.19749,-2.23612 -10.92748,-1.5484 -6.40223,7.0374 -8.97726,9.50805 13.72472,-3.65478 -15.75877,10.84728 -18,5 z m 12.75,-7.75 c 3.8921,-11.47518 -13.57027,6.28994 0,0 z m -47.25,-12.30902 c 2.88022,-1.90558 2.3337,3.43479 0,0 z"
       id="path3015-5"
       inkscape:connector-curvature="0"
       sodipodi:nodetypes="ccccccccccccccccc" />
  </g>
</svg>
