<?xml version="1.0" encoding="UTF-8" standalone="no"?>
<!-- Created with Inkscape (http://www.inkscape.org/) -->

<svg
   xmlns:dc="http://purl.org/dc/elements/1.1/"
   xmlns:cc="http://creativecommons.org/ns#"
   xmlns:rdf="http://www.w3.org/1999/02/22-rdf-syntax-ns#"
   xmlns:svg="http://www.w3.org/2000/svg"
   xmlns="http://www.w3.org/2000/svg"
   xmlns:sodipodi="http://sodipodi.sourceforge.net/DTD/sodipodi-0.dtd"
   xmlns:inkscape="http://www.inkscape.org/namespaces/inkscape"
   width="744.09448819"
   height="1052.3622047"
   id="svg2"
   version="1.1"
   inkscape:version="0.48.3.1 r9886"
   sodipodi:docname="girl_smirking.svg">
  <defs
     id="defs4" />
  <sodipodi:namedview
     id="base"
     pagecolor="#ffffff"
     bordercolor="#666666"
     borderopacity="1.0"
     inkscape:pageopacity="0.0"
     inkscape:pageshadow="2"
     inkscape:zoom="1.6446056"
     inkscape:cx="356.00428"
     inkscape:cy="693.60418"
     inkscape:document-units="px"
     inkscape:current-layer="layer5"
     showgrid="false"
     inkscape:window-width="1391"
     inkscape:window-height="876"
     inkscape:window-x="49"
     inkscape:window-y="24"
     inkscape:window-maximized="1" />
  <metadata
     id="metadata7">
    <rdf:RDF>
      <cc:Work
         rdf:about="">
        <dc:format>image/svg+xml</dc:format>
        <dc:type
           rdf:resource="http://purl.org/dc/dcmitype/StillImage" />
        <dc:title />
      </cc:Work>
    </rdf:RDF>
  </metadata>
  <g
     inkscape:label="Layer 1"
     inkscape:groupmode="layer"
     id="layer1"
     style="display:none">
    <path
       style="fill:#854040;fill-opacity:1"
       d="m 276.73615,520.87813 c -12.23305,-19.46532 -19.59077,-46.49759 -19.62692,-71.42367 -1.19016,-14.95643 -1.10629,-32.53659 8.41772,-38.87862 5.19739,-11.0199 3.33458,-17.99183 8.89583,-14.43853 6.59462,-6.3696 9.98404,-38.42477 11.71417,-20.85248 9.18755,3.77069 -2.3138,-19.09812 7.20718,-22.60221 1.94644,11.59 3.34803,19.52873 6.36095,24.18386 -11.34389,27.07936 19.22521,-16.62452 6.94092,9.51239 5.95329,0.0461 -13.47737,14.16785 5.35038,16.2796 7.40982,11.81086 24.65193,-2.31904 20.00072,-5.29945 1.23261,-2.33879 24.79704,-21.50393 13.46684,-20.99256 12.49701,-13.1661 15.24792,21.89971 -1.02641,27.6713 -10.97748,16.5865 25.52337,-0.55143 34.68124,-0.97528 22.55149,-8.85305 -16.7459,17.23058 3.81193,10.55419 4.29905,6.78752 11.72684,-3.46545 3.91219,-3.67271 6.27267,-2.90164 26.84113,-25.87479 14.97502,-22.52169 -3.09238,-9.21354 0.39843,-40.49586 4.03229,-9.1964 0.97456,8.85044 17.78801,-16.62998 7.59687,8.41708 0.42337,13.32621 -19.14829,35.42825 6.31604,38.54883 12.78552,10.54581 17.41469,17.7949 20.0311,-4.26027 2.91506,-9.47976 18.87707,-36.44755 7.56657,-36.27938 -23.93484,6.86424 8.80174,-5.35651 6.81277,-8.95995 7.18069,-6.36775 2.17515,-43.66008 -22.9847,-41.54902 -17.39119,-10.46456 -22.44044,5.85387 -29.26534,13.05603 3.00826,-6.5905 6.34837,-31.5674 11.28978,-28.00102 -1.39395,9.90333 21.03877,12.38366 12.49923,3.89756 13.77573,4.03606 35.05561,10.46136 18.08263,-9.36243 -7.90274,-12.99163 -13.12175,-13.88231 -15.37799,-33.95337 -2.44802,-12.7648 -8.13686,-29.02777 -12.24178,-19.13535 0.80949,-23.89748 -5.81885,-46.48153 -13.78125,-67.09973 1.06859,-21.59721 -45.12158,-42.32837 -39.91279,-46.16158 20.8611,14.79793 43.51648,32.63481 47.4351,59.25629 5.87179,16.92339 10.10692,28.30276 12.90834,45.47693 8.81029,29.73996 22.07257,57.94649 38.58948,84.00374 9.10249,15.99433 6.89577,29.98366 5.28882,27.85104 -3.21189,13.59138 2.81486,12.61475 -0.75919,29.94205 -0.55617,13.37938 5.92275,46.82303 5.88168,13.70211 -0.19749,32.28718 0.52338,65.41455 -6.60918,97.00106 -153.54912,102.44252 -152.28435,32.2085 -188.48024,16.26164 z m 115.38149,32.58858 c 10.88569,3.04025 9.73655,-10.52006 13.31306,-6.85647 13.65789,8.52257 12.36274,-13.2323 5.78944,-3.45903 -7.59006,6.02242 -0.31454,-3.08478 -0.55694,-7.69929 -8.07555,10.54099 -27.70437,9.92039 -29.06805,21.66241 -9.34737,7.1438 7.54307,-18.57361 -11.30752,-3.58905 -21.19709,21.07608 -6.33111,-26.55001 -19.29429,-19.90878 -6.82715,-1.46806 4.78181,-17.66848 -1.23652,-29.77336 -15.34669,-17.59087 -0.15576,38.5542 -8.80989,48.72222 -8.65574,0.65439 -20.75137,0.96507 -14.5123,-6.84933 -4.21164,-3.7994 -19.4839,-16.64336 -15.4451,-8.52536 1.3807,3.17814 6.96441,6.71905 12.6849,17.76148 1.6842,9.79096 3.74194,-7.11814 6.75623,-0.63687 -11.56494,15.13706 10.79787,6.82991 14.44806,-1.31721 11.31901,25.10019 42.31141,0.27202 47.23892,0.46864 z m -22.08394,3.31647 c 2.50285,-3.10419 3.71115,3.01211 0,0 z m -20.26968,-2.84607 c 3.24527,-3.70632 7.77825,4.66052 0,0 z m 2.66667,-2.8206 c -2.14865,-4.88467 4.91781,5.01138 0,0 z m 45,-2.09184 c 3.05405,-4.9716 5.6345,1.74145 0,0 z m 15.5,-5.40816 c 2.46629,-3.56228 1.20936,3.65615 0,0 z m -67.13837,14.49999 c -4.76323,-5.37424 1.27889,5.3355 0,0 z m -33.71988,-4.00111 c -4.88263,-3.22607 4.27069,8.74609 0,0 z m 87.69004,1.4707 c -3.16307,-4.88595 -8.06385,2.85131 0,0 z m -18.33179,-0.96959 c -1.20936,-3.65615 -2.46629,3.56228 0,0 z m 50.39972,-10.16225 c -4.35836,-0.99687 -4.04262,5.0748 0,0 z M 333.64,525.74603 c -3.62267,-18.28288 7.28254,-49.29056 -20.77617,-38.26691 13.74337,5.30073 -5.06965,33.0008 5.10905,44.81343 15.06406,14.376 17.06997,13.97643 15.66712,-6.54652 z m -8.20931,5.81141 c 2.88022,-1.90558 2.3337,3.43479 0,0 z m 44.48761,10.03897 c 10.44558,-1.16275 21.79715,-12.81679 6.4178,-5.72995 0.70075,-9.38379 56.32963,-14.33452 22.34459,-12.88188 -7.52007,5.48792 -6.03222,-5.76958 -13.15451,-6.94842 -10.67603,-4.77006 -28.04232,-21.60608 -20.35368,-0.52587 -0.51453,4.65032 -1.4509,33.66815 4.7458,26.08612 z m 0.24572,-3.10404 c 5.36885,-2.97937 -2.43669,3.07332 0,0 z m 0.7623,-2.88297 c 2.06024,-7.14814 6.359,4.00491 0,0 z m 5.14054,-8.4872 c 3.99553,-3.63466 0.43951,5.05776 0,0 z m 7.93409,-0.39205 c 3.34342,-5.20748 4.08554,1.82891 0,0 z m 5.0263,-1.95746 c 2.66132,-7.93712 3.02907,3.24562 0,0 z m -13.59656,-3.59721 c 2.57547,-5.06339 1.5238,3.84062 0,0 z m 8,0.41465 c 5.54267,-2.60719 3.51406,2.43231 0,0 z m -11.12756,-3.72367 c -3.34509,-4.77429 6.08469,5.89208 0,0 z m 51.71464,23.35762 c -0.67402,-2.46547 -6.90093,6.59445 0,0 z m -3.99159,-1.76217 c -3.1494,-7.56447 -5.77968,2.4759 0,0 z m 7.82106,-2.20236 c -6.55788,-6.79871 0.93987,7.37183 0,0 z m -2.99933,-3.02391 c 0.45706,-9.77925 -15.20689,9.31479 0,0 z m -3.41722,-0.61918 c 9.61681,-3.75526 -2.97997,3.27412 0,0 z m 16.22631,-4.34861 c -9.99116,-38.5583 -4.3322,10.8703 0,0 z m 12.36918,0.1941 c -2.99786,-3.56271 10.43314,-16.65822 8.72622,-31.39375 2.2388,-14.22193 -5.09072,-61.95533 -11.78282,-29.95179 -4.94327,12.15174 -12.37416,56.05809 0.75762,49.62158 -5.6719,1.76193 -3.86112,15.36558 2.29898,11.72396 z m -4.0312,-4.55236 c -1.25112,-4.37677 3.47251,4.67515 0,0 z m 2.89677,-4.35614 c 1.45312,-16.32288 6.49984,0.48096 0,0 z m -5.46106,-5.96837 c 3.90414,-3.2606 4.00798,1.77513 0,0 z m 7.54271,-9.89952 c 1.5595,-5.61112 4.86033,3.5504 0,0 z m -5.54271,-9.0691 c 7.32841,-4.19286 -2.47946,3.93854 0,0 z m 3,-26 c 2.46629,-3.56228 1.20936,3.65615 0,0 z m 1.5,-3 c 2.46629,-3.56228 1.20936,3.65615 0,0 z m 2,-3 c 2.46629,-3.56228 1.20936,3.65615 0,0 z m -167.49007,62.47388 c 2.26958,-9.27472 4.63074,-35.55628 -8.01576,-27.02699 0.33123,5.65761 3.00728,32.11467 8.01576,27.02699 z m -3.00993,-5.5329 c 2.88022,-1.90558 2.3337,3.43479 0,0 z m 29.18333,3.84235 c -3.55101,-2.14632 2.48744,5.18789 0,0 z m 87.31667,-3.78333 c -1.20936,-3.65615 -2.46629,3.56228 0,0 z m 7.22917,-1.60417 c -3.68154,-1.13412 -1.83703,1.74158 0,0 z m -0.3993,-2.81307 c -4.11771,-9.85391 -5.40132,5.88738 0,0 z m 4.67013,0.41724 c -2.55494,-3.58745 -2.55494,3.58745 0,0 z m -9.26218,-2.25 c -10.07779,-12.32264 -7.12202,3.29557 0,0 z m -7.49405,-0.47231 c -6.79832,-9.41174 -3.63601,4.22528 0,0 z m -7.5146,-2.88186 c -3.68154,-1.13412 -1.83703,1.74158 0,0 z m -93.61382,-4.14583 c 10.18065,-16.38839 -13.90267,-5.336 0,0 z m 96.38465,0.75 c -18.86582,-8.65351 -21.82655,-3.86554 0,0 z m 13.62068,-3.89226 c -9.35745,-12.0241 21.83224,9.22298 6.32005,-4.01178 8.12234,0.42059 5.72671,-12.68471 -2.32469,-0.82125 -15.68956,4.8374 -32.60985,-11.10983 -36.67405,-31.04508 3.30057,-12.33868 -22.65467,-6.66947 -27.87102,-14.96083 13.93664,-1.49543 -16.78905,-0.40998 -16.92097,-1.2688 -2.85605,-0.3942 -27.23233,-7.81455 -33.55367,-10.95876 13.14924,-0.79268 32.6867,5.6222 39.15593,1.66267 -3.52071,-5.54772 -28.29274,-24.66833 -29.25104,-18.37212 15.07099,12.8636 9.51788,26.73391 -3.82739,8.48189 -2.95068,8.66245 -12.86954,-17.54095 -12.95291,-17.43107 -10.94713,-19.96508 -9.23095,7.2428 -13.96458,20.56918 -1.73944,-0.48659 18.48366,23.60865 8.37848,6.58015 -5.42425,-11.43128 5.91849,6.27968 1.43383,-7.34238 4.62125,24.50415 34.14404,24.69533 42.27377,33.81044 14.96291,11.24065 36.28176,15.92624 53.10755,26.07419 4.654,0.37373 30.118,17.76921 26.67071,9.03355 z m -31.12068,-14.4853 c 3.23766,-4.63196 3.52199,-0.78294 0,0 z m -60.1875,-40.30555 c 5.59053,-0.8633 -1.71937,1.71436 0,0 z m -34.2647,-18.56689 c -5.04337,-8.14619 9.31117,-20.29979 2.39453,-1.16271 0.294,1.61223 -3.57515,5.97168 -2.39453,1.16271 z m 8.56617,-4.62915 c -6.00244,-8.61526 8.57992,6.34489 0,0 z m -11.73542,73.37915 c -3.9458,-15.22297 -4.58419,-38.5091 -10.51759,-58.49625 0.50407,16.87284 1.12711,57.92395 10.51759,58.49625 z m 83.62145,2.5 c -2.55494,-3.58745 -2.55494,3.58745 0,0 z m 9,0.62244 c -3.23766,-4.63196 -3.52199,-0.78294 0,0 z m 9.25,-2.84293 c -9.72577,-7.89263 1.86008,6.54847 0,0 z m 39.73469,-3.02951 c -2.02828,-3.4715 -2.13932,7.67887 0,0 z m -78.30158,0.0625 c -1.71452,-1.71931 0.86336,5.59056 0,0 z m 30.87074,0.10037 c -5.0387,-9.72127 -39.89997,-15.00853 -13.11856,-5.70179 3.15292,2.6403 8.68392,9.16478 13.11856,5.70179 z m 26.44615,-2.01986 c -10.67532,-5.93241 -3.46147,4.21384 0,0 z m 11,-0.50964 c -4.90315,-4.59698 -7.05774,7.03097 0,-3e-5 z m -112,-0.86492 c -14.61522,-11.37655 -16.22058,4.49957 0,0 z m 105.01917,-3.99535 c -13.45239,-4.12145 0.0472,6.92304 0,0 z m 19.65617,0.81891 c 3.21971,-8.97052 -6.66855,1.66808 0,0 z m -75.1362,-1.27869 c -11.06084,-9.13612 -6.70266,1.25854 0,0 z m 37.46456,-3.55936 c -8.79244,-6.61379 4.97535,8.16845 0,0 z m 11.78935,-0.50394 c 4.67994,-9.40818 -21.27993,-21.53457 -10.55614,-10.39871 -9.73357,1.19764 6.60012,17.70257 10.55614,10.39871 z m 12.47465,1.08433 c 2.08569,-21.23899 -3.80383,7.48678 0,0 z m 13.50097,-0.83433 c 9.52411,-12.09388 3.31561,-13.35089 -3.75855,-4.64497 -1.46137,0.4973 1.52552,10.22669 3.75855,4.64497 z m -0.22596,-4.1809 c 3.72671,-8.44082 0.80091,4.10379 0,0 z m -145.54271,3.9309 c -2.55494,-3.58745 -2.55494,3.58745 0,0 z m 14,-0.44098 c -2.3337,-3.43479 -2.88022,1.90558 0,0 z m 179.38458,-13.59209 c 3.26395,-19.90726 4.55381,-49.21723 -2.44747,-64.6878 -3.58161,13.9905 2.34393,17.77017 -5.53724,24.47269 -9.86862,11.78485 10.51894,57.4897 6.828,47.71526 l 0.55112,-3.40706 0.60563,-4.09309 z m -180.71939,8.78305 c -7.90435,-6.61229 25.09787,-4.7095 24.07356,-6.20382 -12.86397,-0.42145 -27.37374,-5.52117 -33.72793,-14.79623 4.41449,4.1764 -0.41809,26.69878 9.65437,21.00005 z m -22.76487,-16.87672 c -4.6904,-35.39493 0.61439,27.41748 0.4258,4.45091 z m 153.97922,8.55227 c 5.44603,-13.23068 -8.4883,8.88892 0,0 z m -40.35308,-1.23242 c -4.34968,1.18781 -1.93312,2.83009 0,0 z m -78.52646,-0.67973 c -8.58902,-11.56688 -23.25396,-3.46548 0,0 z m 115.5,-0.51342 c -1.51654,-3.80867 -3.05358,3.16631 0,0 z m -7.5,-0.94424 c -4.61325,-8.92503 -6.42379,-3.83072 -0.25,0.92617 z m -107.5,-1.05576 c -3.58829,-3.8072 -1.24187,3.94236 0,0 z m 86.5,0.60699 c -4.94959,-4.33265 -2.04643,2.18311 0,0 z m -90,-2.07183 c -6.09122,-5.08244 -4.47397,0.76572 0,0 z m 116.02006,-4.01101 c -5.53007,-9.7457 -30.83065,-29.24089 -5.16691,-14.19556 19.86452,12.6019 -24.70253,-32.30329 -21.85181,-3.95416 -12.19479,21.31724 19.97601,1.86358 27.01872,18.14972 z m 16.19227,-3.02417 c 6.11221,-9.19226 10.43504,-19.10752 -2.78612,-13.6194 -3.45106,-2.88795 2.07537,22.96012 2.78612,13.6194 z m -11.55642,-3.9922 c -5.98967,-8.7781 1.43449,8.33511 0,0 z m -60.65591,0.49744 c -6.61142,-6.67834 -6.26583,3.89999 0,0 z m 24.003,-6.25524 c 0.49163,-14.00381 7.77669,-18.25354 9.6345,-27.75 -19.79065,10.51336 -13.57527,22.83536 -28.21389,27.39364 -5.57136,2.22893 20.84999,8.64221 18.57939,0.35636 z m -5.01214,0.76101 c 7.20075,-3.61206 -2.18762,5.09334 0,0 z m -6.99086,-1.51101 c 2.55494,-3.58745 2.55494,3.58745 0,0 z m 35.97994,1.47583 c -5.33945,-3.72833 2.35966,4.6636 0,0 z m -44.85238,-1.22583 c 3.08913,-4.50194 -5.58128,5.32311 0,0 z m -89.01506,-2.5375 c -3.73468,-1.39888 2.88826,6.98792 0,0 z m 85.26578,-0.7125 c 6.05474,-4.2649 23.21624,-20.51519 17.85942,-20.3815 -12.28961,4.36677 -41.38008,11.19414 -20.92375,23.2065 l 3.06433,-2.825 z m 67.35089,3.39583 c -3.68154,-1.13412 -1.83703,1.74158 0,0 z m -79.72917,-1.45485 c 6.22621,-3.32382 -7.63366,1.04666 0,2e-5 z m 78.55747,-2.44337 c -5.0048,-15.67205 -6.12074,9.73236 0,0 z m -6.95632,-7.99761 c -2.82673,-2.16073 -4.43278,-3.40028 -11.6591,-0.9352 2.71871,2.55112 13.28296,10.75268 11.6591,0.9352 z m -69.60115,3.55902 c -1.97302,-5.3582 -2.65779,3.53786 0,0 z m -75,-1.62476 c -3.40951,-8.67973 6.56337,-15.88969 -4.25475,-13.56814 -4.47903,-6.90128 -1.10802,15.71185 4.25475,13.56814 z m 157.25,-1.6287 c -9.09862,-5.29942 4.90618,6.63904 0,0 z m -82.69968,-7.31 c 8.10404,-2.73725 39.55136,-19.73858 12.26172,-9.98742 -6.10689,4.96443 -25.72425,0.87243 -19.08526,15.36073 1.74179,-2.35629 2.66838,-6.69743 6.82354,-5.37331 z m -7.15062,-2.2286 c 16.88898,-7.39373 5.27795,2.14489 0,0 z m -30.3997,4.34967 c -5.27667,-3.08004 -5.28772,1.71624 0,0 z m 114.5,-0.61663 c -1.20936,-3.65615 -2.46629,3.56228 0,0 z m -89.51365,-2.25 c -0.0326,-9.76293 -32.02826,-14.85844 -10.15302,-4.74765 2.32459,-2.30005 8.97392,9.60565 10.15302,4.74765 z m 34.9513,-3.50037 c 19.87086,-17.24311 -29.61815,13.97498 0,0 z m 45.06235,3.37083 c -8.53781,-13.33702 -16.41167,-3.33825 0,0 z m -17.31791,-1.87046 c 8.68015,-9.64211 -6.03301,-6.74132 -1.81056,1.2003 z m -101.68209,-6.25 c -2.36366,-8.66117 -2.36366,8.66117 0,0 z m -19.01531,-1.58333 c -4.41728,-2.52795 -0.97026,6.45424 0,0 z m 189.01058,-3.62899 c -2.67658,-4.38255 2.33968,10.03273 0,0 z m -134.99527,0.92793 c -8.18112,-7.19492 -7.57063,0.57678 0,0 z m -54,-2.21561 c -2.55494,-3.58745 -2.55494,3.58745 0,0 z m 0,-3.18153 c -0.3284,-13.47141 -7.94874,10.23987 0,0 z m 44,0.67991 c -16.36408,-15.32562 -20.93721,-3.54483 0,0 z m 15,-1.99838 c 7.38393,-15.19205 -6.64204,4.24315 0,0 z m 66.51571,-1.57151 c -1.39813,-12.22359 -6.58526,9.56741 0,0 z m -107.86321,-1.50936 c 10.59048,-21.79566 -12.05792,-5.70716 -0.0698,3.40738 l 0.0698,-3.40738 z m 117.72906,0.0289 c 0.0829,-4.20925 -2.96714,4.98625 0,0 z m -135.38156,-3.44803 c -2.46629,-3.56228 -1.20936,3.65615 0,0 z m 8.30793,-1.04667 c 8.54883,-16.37886 -11.72534,7.19872 0,0 z m 16.07363,-3.50527 c 0.0829,-4.20925 -2.96714,4.98625 0,0 z m 50.98079,-5.69806 c 12.35984,-17.93334 -4.6259,-0.7977 0,0 z m -51.0726,-1.75 c -0.70891,-6.96035 -2.28182,6.96363 0,0 z m 6.50213,-1.25 c -1.13022,-4.89944 -5.36982,2.51167 0,0 z m -18.29188,-5.75 c -1.20936,-3.65615 -2.46629,3.56228 0,0 z m 12.42971,-5.30902 c -4.68606,0.32432 0.21148,8.08707 0,0 z m 163.46973,-36.09244 c -9.27939,-11.74336 -7.95256,2.86527 0,0 z m -8.96611,-5.4861 c -13.865,-4.82074 -1.91509,3.88721 0,0 z m 4.56667,-2.65666 c -2.44358,-4.28741 -3.82683,0.94545 0,0 z m -4.5,-2.45578 c 1.66689,-3.73628 -1.81195,-0.97543 0,0 z m -16,-3 c -7.6218,-3.94123 -2.48252,3.93327 0,0 z m -21,-7 c -1.24187,-3.94236 -3.58829,3.8072 0,0 z m 59.06429,174.70691 c 3.50436,-4.56352 -1.26619,4.16137 0,0 z m 4.43571,-7.70687 c 2.46629,-3.56228 1.20936,3.65615 0,0 z M 250.86744,457.92543 c -11.62274,-25.82752 -4.75384,-55.37708 -10.68634,-82.62627 -1.04507,-23.33812 5.39358,17.52564 5.93775,-9.98742 3.58522,-23.37443 3.54798,-40.30372 1.22541,-61.67106 -3.18376,-12.41932 -3.56046,-27.88038 1.84324,-8.20921 0.10012,-15.82063 -8.75153,-29.53379 -5.92686,-42.20991 1.21817,-17.58758 -4.38147,-32.88658 0.69041,-40.73321 -7.22983,-7.4308 4.06345,-9.17577 0.45685,-12.01108 2.43942,-0.20166 8.75168,-23.70116 9.12665,-13.11989 -8.8021,6.80641 -1.68411,26.53388 -0.36374,4.6115 1.55556,-1.72878 -2.89186,32.14115 7.44988,42.20219 1.28327,14.95266 8.54498,31.51241 16.73534,40.19523 2.72068,-6.52979 10.74602,27.00923 25.07465,28.70879 17.81523,15.8296 26.83373,12.63647 44.00001,-1.28704 13.20268,-6.29541 10.11136,-7.78215 22.57166,-18.89076 -7.41073,4.39965 12.06842,-20.46745 6.01838,-29.44839 12.59861,-3.95291 -6.15667,9.5877 5.45302,3.23717 -5.3053,18.63654 4.83788,4.72808 5.07762,7.35565 -4.30245,7.84935 10.42768,-8.90605 2.07929,6.7746 -4.90059,10.30905 -4.16424,24.78106 -5.7,27.8 -3.12845,6.41612 -0.47251,-18.32106 -7.30276,-1.63135 -4.1454,12.56882 -6.85683,10.78957 3.5936,8.88135 -3.67209,8.72846 -11.08615,7.64384 -21.64783,25.71201 -8.43403,-6.47588 17.93226,-20.92488 4.04915,-24.78947 12.17548,-17.6169 -13.69513,16.47624 -16.95067,11.79691 0.34682,-6.25672 19.00819,-20.65038 1.66291,-8.96948 -19.24894,1.54894 -2.56744,39.75971 -27.17219,32.66552 -11.00774,-9.13482 -3.72312,0.11225 4.4884,-3.58308 13.66421,-9.66281 -5.03469,-24.50045 -6.1947,-8.0234 6.67454,-19.33024 -30.50657,-24.47172 -37.1636,-43.23574 5.88526,-10.66777 -15.1534,-23.34288 -6.75435,-1.84582 -0.3627,8.28333 -8.78124,-38.90045 -12.76892,-19.74785 -3.85474,-8.18965 -9.94737,-38.31835 -5.5744,-32.07476 2.61781,24.42964 4.72902,-20.43363 -3.31449,-3.50578 0.52727,-32.13204 -4.5872,16.69338 -3.56891,24.32721 -1.85286,-12.85089 2.4655,45.02214 7.77775,36.39893 -2.68395,-12.06379 -5.00418,-55.06848 -0.0715,-26.0199 -0.12358,16.6396 3.33608,37.67868 7.64561,50.51967 -0.12963,13.20755 11.56117,55.38098 5.55396,21.12702 7.09434,-2.04526 5.71105,19.58965 4.13184,26.54422 3.26978,13.79367 -15.05412,33.36936 -13.23741,5.70376 -4.54059,-12.26219 -3.60354,-29.10507 0.0743,-7.53693 8.9931,33.81067 7.66699,-28.77495 2.17784,-40.28332 -1.88571,-11.00134 -10.35616,-39.05189 -6.62484,-11.42066 -0.058,13.15513 9.35849,27.77175 5.35335,30.3612 -3.91394,-15.11293 -9.46528,-28.11474 -8.36679,-4.35266 0.21184,30.39171 -8.93779,61.37471 1.21486,90.86743 -1.31007,22.85445 -9.86924,-39.499 -7.271,-3.51612 -1.17229,10.11895 10.8073,46.1365 6.31019,38.32674 l -1.11257,-3.38669 1e-5,1.5e-4 z m -3.52235,-71.80894 c -1.48615,-8.31804 -2.5512,16.50293 0,0 z m 18.78083,-5.77577 c -0.2234,-5.61545 -3.18041,9.47466 0,0 z m 1.79583,-8.75548 c 0.71647,-9.09617 -4.56869,15.25573 0,0 z m 1.17561,-7.42476 c -1.49238,-3.6497 -0.75321,4.49539 0,0 z m 0.33333,-2.98497 c -2.3337,-3.43479 -2.88022,1.90558 0,0 z m 61.68204,-39.13682 c -10.51495,-12.87132 -1.29217,14.41372 0,0 z m -27.65868,-14.44691 c -29.82123,-23.61387 15.51005,16.12631 0,0 z m 55.50694,-6.77833 c -5.60156,1.25763 -3.85135,6.94693 0,0 z m 4.4697,-3.67313 c -2.33236,-3.60578 -5.4921,6.18643 0,0 z m -2,-3.52383 c -2.55494,-3.58745 -2.55494,3.58745 0,0 z m 6.5,-5 c -1.20936,-3.65615 -2.46629,3.56228 0,0 z m 8.18311,-10.1875 c -1.71452,-1.71931 0.86336,5.59056 0,0 z m 1.31689,-3.43494 c -1.75389,-3.78894 -4.44936,5.88513 0,0 z m 4.47891,-2.61888 c 0.82041,-5.71368 -6.83333,2.49952 0,0 z m -4.49422,-5.0677 c -4.70836,-0.74306 -0.0363,7.07473 0,0 z M 258.03486,243.88729 c -4.88899,-0.0236 2.72503,5.17529 0,0 z m -13.72017,-17.52083 c -2.78121,-7.49374 -1.56491,11.00779 0,0 z m 11.116,-4.75 c -2.46629,-3.56228 -1.20936,3.65615 0,0 z m -7.20589,-6.64378 c -1.63336,-4.02702 -0.8585,9.6101 0,0 z m 0.95589,-6.87446 c -1.40514,-9.9143 -2.12774,8.99649 0,0 z m -14.75,196.45922 c 2.88022,-1.90558 2.3337,3.43479 0,0 z m 235.5,-1.94098 c -3.691,-6.44443 6.87222,6.72885 0,0 z m -206.83333,0.33333 c -2.39756,-6.62584 3.60332,0.41492 0,0 z m -29.58772,-1.91666 c 0.64328,-3.85396 1.01442,4.55158 0,0 z m 29.621,-3.7562 c 2.13481,-10.37346 2.98943,2.62464 0,0 z m -29.9604,-7.41047 c 4.28982,-19.83173 -0.23522,16.01581 0,0 z m 31.4554,-0.75 c 0.44973,-5.70268 0.96884,6.17479 0,0 z m 6.06953,-3.43184 c -4.83904,-8.44814 9.77224,7.09614 0,0 z m 40.74813,-0.0392 c -2.13802,-3.34629 7.07017,3.07701 0,0 z m 54.98739,0.26444 c 18.47541,-11.25533 -12.25588,-3.51827 4.5,-17.7934 -2.90921,22.68126 30.4236,-24.85629 14.34474,1.81165 -6.06319,2.86007 -12.70409,17.5072 -18.84474,15.98175 z m -53.5165,-4.31941 c 1.89176,-8.60963 1.64953,6.09812 0,0 z m 106.745,0.065 c -5.82613,-7.9613 8.00214,6.72005 0,0 z m -147.2285,-3.09801 c 2.88022,-1.90558 2.3337,3.43479 0,0 z m 39.70809,-2.62267 c 4.48736,-2.53397 5.93178,4.84895 0,0 z m -77.83921,-0.66032 c 3.12609,-8.2712 1.28643,5.67956 0,0 z m 125.6339,0.092 c -4.87918,-23.99626 14.34758,-41.83314 26.79938,-60.42395 13.97924,-17.53095 18.81156,-38.08212 21.69705,-55.80954 2.20896,5.56161 -12.11476,52.82906 -1.02468,28.98349 -3.38012,20.08822 -22.33095,38.09785 -33.36931,50.16543 -23.86701,28.08187 40.73027,-7.51792 9.21943,11.57902 -17.8498,3.0934 -22.85804,11.27667 -23.32187,25.50555 z m 15.30409,-43.27646 c -2.83009,1.93312 -1.18781,4.34968 0,0 z m 17.19313,-18.16439 c 9.23531,-9.66899 10.88703,-28.14886 1.66599,-6.86971 -2.35085,2.45367 -8.59113,15.40896 -1.66599,6.86971 z m -120.43571,59.98399 c -1.25112,-4.37677 3.47251,4.67515 0,0 z m 192.01013,0.37354 c 5.2966,-4.69066 1.05688,4.50381 0,0 z m -153.00439,-1.55336 c 2.13453,-9.4714 3.32305,4.03242 0,0 z m 109.50892,-0.69664 c 0.64328,-3.85396 1.01442,4.55158 0,0 z m -184.80575,-3.43989 c 0.94963,-8.03691 1.78226,5.53685 0,0 z m 84.80575,-3.56011 c 0.64328,-3.85396 1.01442,4.55158 0,0 z m -36.57406,-0.40875 c -0.0139,-8.52245 2.90311,2.10916 0,0 z m 26.99511,-0.008 c 2.46629,-3.56228 1.20936,3.65615 0,0 z m 4.01007,-1.41341 c 3.42448,-12.08901 1.77718,7.25956 0,0 z m -77.01007,-0.58659 c 1.24187,-3.94236 3.58829,3.8072 0,0 z m 157.5,0.059 c 1.97302,-5.3582 2.65779,3.53786 0,0 z m -96.38691,-1.242 c 3.93545,-1.31096 0.89706,2.62077 0,0 z m 11.38691,-0.93367 c 7.85864,-9.73541 2.66153,8.06834 0,0 z m 10.51571,0.14209 c 0.58639,-5.39669 5.70936,3.38585 0,0 z m 81.13004,-0.5062 c -6.51282,-0.69419 -5.00304,-18.043 -8.50442,-31.28459 7.29711,-3.84376 12.77704,-39.53998 7.14209,-8.9017 -6.34888,13.22077 3.97521,33.45589 1.36233,40.18629 z m -163.90258,-0.77496 c -2.65071,-16.68757 4.52857,5.09144 0,0 z m 104.77045,-3.72222 c -12.96911,-3.78934 -18.92219,-11.26893 -1.21396,-3.31396 5.22072,2.01312 8.7019,4.25473 1.21396,3.31396 z m -104.90663,-4.60383 c -0.55481,-19.05176 5.1828,3.12573 0,0 z m 55.34526,0.53112 c -5.84662,-10.38384 7.3739,1.83676 0,0 z m -16.30114,-0.70483 c -4.75767,-6.72158 5.7418,-10.31417 0,0 z m 31.62069,-0.84964 c 6.12631,-13.95928 6.91215,-3.16656 0,0 z m -23.82565,-1.48199 c 0.33005,-7.37208 3.40182,3.56293 0,0 z m 76.55385,0.14615 c 2.14376,-5.36381 1.44003,3.46023 0,0 z m -58,-1.05902 c 7.18433,-3.03165 -2.92793,3.41774 0,0 z m -14.96673,-3.16667 c 1.07537,-2.74817 9.44173,-35.19131 6.78399,-12.66915 -4.07694,5.55736 1.49263,13.64387 -6.78399,12.66915 z m 10.96673,0.2847 c 1.65009,-4.66873 3.4706,1.72386 0,0 z m 63,-0.44471 c 2.4506,-10.06273 9.20763,-25.86853 6.75,-11.0476 -4.21401,-1.32317 -3.08681,15.64913 -6.75,11.0476 z m 4.07895,-3.25665 c 0.64328,-3.85396 1.01442,4.55158 0,0 z m -60.07895,-0.23521 c 2.72416,-5.27375 5.66316,1.70266 0,0 z m -8.48751,-1.16125 c -13.57801,-1.75585 20.90938,-2.5006 0,0 z m 136.8845,-0.18688 c 2.57351,-3.24101 5.32732,3.07418 0,0 z m 32.60301,0.22569 c 1.97302,-5.3582 2.65779,3.53786 0,0 z m -189.5,-2.05902 c 2.46629,-3.56228 1.20936,3.65615 0,0 z m 80.03978,0.0644 c 0.85789,-8.23553 5.95211,1.03587 0,0 z m -38.52447,-0.8144 c 2.4545,-6.75229 2.95331,1.82025 0,0 z m 145.54139,-2.47251 c -16.57826,-11.39258 13.95923,2.91283 0,0 z m -186.0567,0.22251 c 2.46629,-3.56228 1.20936,3.65615 0,0 z m -8.5,-1 c -0.7932,-11.46938 6.99403,-23.8809 3.175,-3 2.17845,3.26079 -1.75,4.89607 -3.175,3 z m 11,-0.39301 c 3.90414,-3.2606 4.00798,1.77513 0,0 z m -2.5,-1.60699 c 2.46629,-3.56228 1.20936,3.65615 0,0 z m 82.5,0.11078 c 6.42093,-13.59827 3.62408,3.77975 0,0 z m -80.10834,-4.02544 c -7.00765,-6.16669 9.43132,3.52877 0,0 z m -14.32275,-4.24767 c -4.6983,-11.98212 7.72693,11.43645 0,0 z m 12.91917,-2.67404 c 5.50052,-16.12902 1.25947,7.94795 0,0 z m 90.29052,0.0977 c 2.76306,-12.4002 4.36989,6.66791 0,0 z m -75.7786,-2.26133 c 0.70891,-6.96035 2.28182,6.96363 0,0 z m 83.59105,-0.85268 c 1.36711,-8.67061 3.48001,2.04112 0,0 z m -103.96605,-1.94499 c 0.0656,-7.21021 3.22835,2.12248 0,0 z m 80.91771,-0.13315 c -0.2161,-7.18389 6.29024,5.57331 0,0 z m -85.54271,-1.62812 c 1.38082,-6.11004 2.41973,8.11249 0,0 z m 10.56429,-0.14785 c -1.25112,-4.37677 3.47251,4.67515 0,0 z m 136.43571,0.70687 c 2.46629,-3.56228 1.20936,3.65615 0,0 z m -1.5707,-2.86327 c 10.29592,-10.06404 -4.30088,8.93712 -0.15209,0.29411 l 0.15209,-0.29411 z m -56.16706,1.23017 c 5.24546,-6.95199 -0.12081,2.42643 0,0 z m -79.75518,-3.40355 c -11.09497,-0.1629 9.35654,-12.51291 0.0624,1.33817 l -0.0624,-1.33817 z M 382.446,306.92548 c 0.90228,-6.47675 3.88384,-0.0712 0,0 z m 38.29761,-2.125 c -2.14002,-5.50599 7.12974,0.22009 0,0 z m -43.06292,-0.8463 c -4.14098,-5.28827 4.97868,1.68249 0,0 z m 6.75,-1.7156 c 4.67014,-13.11286 6.21508,-4.20634 0,0 z m -105.5,-3.62212 c 2.46629,-3.56228 1.20936,3.65615 0,0 z m -6.93903,-2.91667 c 2.2063,-6.35172 4.19593,2.8825 0,0 z m 35.68528,-4.46164 c 6.45709,-4.87766 33.41916,-4.78316 42.74219,-15.94848 -2.61509,19.32636 -28.26872,14.52068 -42.74219,15.94845 z m 84.18465,-6.73349 c 3.8971,-6.31318 0.80573,-24.45396 9.01128,-23.8204 -5.02238,-1.03774 1.07004,22.61216 -9.0112,23.8204 z m -148.4309,-5.80641 c -2.78429,-20.04164 4.15753,13.2569 0,0 z m 165.07895,2.33488 c 0.64328,-3.85396 1.01442,4.55158 0,0 z M 298.575,276.86646 c -4.71913,-4.53564 5.30541,-44.35341 4.98429,-14.07534 -3.58889,6.18349 9.3617,23.94903 -4.98429,14.07534 z m -33.42385,-3.58179 c -2.37899,-10.71366 3.48289,5.08188 0,0 z m 19.94621,-0.33488 c -3.07085,-5.00114 3.95836,1.02045 0,0 z m 103.94202,-0.15747 c 0.71031,-5.1479 3.28068,1.2479 0,0 z m -105.06373,-5.0342 c -1.19734,-17.84517 6.7265,-7.52413 0.70651,2.22601 l -0.48406,-1.52512 -0.22245,-0.70089 z m -7.29496,0.19606 c -5.16464,-11.24632 4.41759,0.33287 0,0 z m 3.75,-3.33772 c 2.46629,-3.56228 1.20936,3.65615 0,0 z m -1,-3.05902 c -3.59071,-13.71548 1.33009,-31.55124 0.63105,-5.34099 -0.26312,-0.84672 0.13045,9.76911 -0.63105,5.34099 z m 7.5,-5.94098 c 1.20936,-3.65615 2.46629,3.56228 0,0 z m 109,0 c 1.20936,-3.65615 2.46629,3.56228 0,0 z m -6.5,-2 c 2.46629,-3.56228 1.20936,3.65615 0,0 z m -13.43642,-1.89713 c 5.66453,-24.12383 -11.3433,-45.85746 -38.57604,-31.17669 -12.24264,8.48796 -18.76138,11.4451 -29.25458,23.84495 8.07167,-18.40486 21.39783,-31.79357 22.69987,-52.05233 9.59038,-6.10748 -18.09379,42.90749 6.98703,25.77694 16.40691,-3.46414 36.04483,-9.55977 33.4438,-8.25932 8.29508,12.46145 10.16145,37.08866 4.69993,41.86645 z m -123.48463,-2.6862 c 0.64328,-3.85396 1.01442,4.55158 0,0 z m 15.3672,0.4962 c 0.33005,-7.37208 3.40182,3.56293 0,0 z m 127.22052,-2.57954 c -3.07085,-5.00114 3.95836,1.02045 0,0 z m -60.16667,-2.33333 c 15.18416,-3.90079 -0.5459,-11.98899 -10.43258,-0.11515 -4.20082,-1.48218 23.72187,-24.18494 18.21235,-12.15678 5.90482,-4.97934 34.80495,-6.43864 19.19749,-2.23612 -10.92748,-1.5484 -6.40223,7.0374 -8.97726,9.50805 13.72472,-3.65478 -15.75877,10.84728 -18,5 z m 12.75,-7.75 c 3.8921,-11.47518 -13.57027,6.28994 0,0 z m -59.17105,4.16667 c 0.64328,-3.85396 1.01442,4.55158 0,0 z m -20.41228,-2.08334 c -4.46286,-9.14031 4.98497,1.08147 0,0 z m 21.33333,-1.33333 c -3.69388,-4.55207 6.0342,2.16652 0,0 z m -10.77069,-2.5 c 2.07144,-8.67997 1.44118,8.67731 0,0 z m 13.48738,-2.52462 c -4.77134,-6.28545 5.87915,-6.65057 0,0 z m -25.67159,-0.72538 c 3.29225,-17.57836 3.76461,4.9413 0,0 z m 12.64103,-1 c -2.09196,-16.26496 4.91461,-10.79117 0,0 z m 111.98054,-1.91667 c -3.07085,-5.00114 3.95836,1.02045 0,0 z m -90.66667,-4.39235 c 2.88022,-1.90558 2.3337,3.43479 0,0 z m -7.5,-2.94098 c 1.20936,-3.65615 2.46629,3.56228 0,0 z m 2.5,-2 c 2.46629,-3.56228 1.20936,3.65615 0,0 z m 120.50708,-1.98855 c 0.74575,-2.33903 4.2321,3.66689 0,0 z m -136.06093,-1.09858 c 0.33005,-7.37208 3.40182,3.56293 0,0 z m -38.44615,-2.47189 c 1.52381,-3.84061 2.57546,5.06339 0,0 z m 56.08157,-2.13196 c 1.4703,-11.93776 3.55178,-0.31857 0,0 z m 58.10176,-7.52569 c -4.73294,-6.31568 5.56709,3.31615 0,0 z m -55.18333,-3.34235 c 1.74518,-3.8071 1.17867,4.84536 0,0 z m -61,-2.5 c -5.56645,-4.34685 4.58404,0.83506 0,0 z m 110.22251,-0.49768 c -11.66694,-11.56082 5.72093,-1.73488 0,0 z m -109.22251,-4.00232 c -5.46832,-12.51895 5.24997,0.48286 0,0 z m 103.70132,-5.10503 c -6.80166,-10.39039 4.54715,3.73243 0,0 z m -88.99308,-6.06964 c 1.01335,-11.13332 4.80762,-0.53496 0,0 z m 2.29176,-10.14387 c 3.24421,-7.4623 4.43788,3.32985 0,0 z m 21.07895,-11.70577 c 0.64328,-3.85396 1.01442,4.55158 0,0 z m 60.73355,-17.09978 c 5.59054,-0.86328 -1.71939,1.71435 0,0 z m -15.8125,-1.44921 c -17.34964,-3.92315 13.45735,-1.27125 0,0 z m 9.26903,0.43933 c 8.2223,-1.24017 -1.16286,1.71579 0,0 z m -30.26903,-1.30701 c 3.54894,-3.4795 4.63518,3.88264 0,0 z m -3.1875,-0.68311 c 5.59054,-0.86328 -1.71939,1.71435 0,0 z"
       id="path3015"
       inkscape:connector-curvature="0"
       sodipodi:nodetypes="cccccccccccccccccccccccccccccccccccccccccccccccccccccccccccccccccccccccccccccccccccccccccccccccccccccccccccccccccccccccccccccccccccccccccccccccccccccccccccccccccccccccccccccccccccccccccccccccccccccccccccccccccccccccccccccccccccccccccccccccccccccccccccccccccccccccccccccccccccccccccccccccccccccccccccccccccccccccccccccccccccccccccccccccccccccccccccccccccccccccccccccccccccccccccccccccccccccccccccccccccccccccccccccccccccccccccccccccccccccccccccccccccccccccccccccccccccccccccccccccccccccccccccccccccccccccccccccccccccccccccccccccccccccccccccccccccccccccccccccccccccccccccccccccccccccccccccccccccccccccccccccccccccccccccccccccccccccccccccccccccccccccccccccccccccccccccccccccccccccccccccccccccccccccccccccccccccccccccccccccccccccccccccccccccccccccccccccccccccccccccccccccccccccccccc" />
  </g>
  <g
     inkscape:groupmode="layer"
     id="layer3"
     inkscape:label="hair"
     sodipodi:insensitive="true">
    <path
       style="fill:#214e96;fill-opacity:0.67264572;stroke:#000000;stroke-width:3;stroke-linecap:butt;stroke-linejoin:round;stroke-miterlimit:4;stroke-opacity:1;stroke-dasharray:none"
       d="m 300.98401,140.89747 c -25.88682,4.22288 -46.44554,19.96083 -57.76461,56.54851 -1.69603,43.55896 0.48907,84.5305 8.51268,121.6097 -1.70396,27.24504 -2.20619,62.10112 -8.51268,60.19681 0.46172,27.95413 -1.5223,56.60704 9.72878,81.4785 l 211.60088,43.17144 c 4.38733,-25.55238 7.86093,-51.2875 4.25634,-78.43826 -1.09332,-36.25359 -6.81185,-70.96545 -17.63341,-103.97629 -20.477,-30.15146 -21.11317,-42.70494 -29.18633,-65.06119 -8.21744,-22.75582 -10.07196,-47.197 -19.45755,-69.92558 -9.21103,-14.97045 -20.83043,-28.40129 -38.9151,-37.69901 -18.57662,-9.53401 -40.97642,-7.5985 -62.629,-7.90463 z"
       id="path3844"
       inkscape:connector-curvature="0"
       sodipodi:nodetypes="ccccccccaccc" />
  </g>
  <g
     inkscape:groupmode="layer"
     id="layer2"
     inkscape:label="face"
     sodipodi:insensitive="true">
    <path
       style="fill:#d0a979;fill-opacity:0.67264572;stroke:#000000;stroke-width:2.5999999;stroke-linecap:round;stroke-linejoin:round;stroke-miterlimit:4;stroke-opacity:1;stroke-dasharray:none"
       d="m 323.48181,317.23154 c -7.0939,0.0558 -14.1878,-6.55259 -21.2817,-10.94487 l -11.55292,-6.68854 c -14.36048,-21.6338 -27.69071,-47.94169 -34.05072,-80.87045 -1.32847,-18.74974 0.9578,-36.98308 10.94487,-54.11631 21.76149,-21.47865 26.77115,-15.73558 36.48291,-17.63341 16.23279,-2.55011 33.08328,-2.21765 54.11632,17.63341 10.51653,28.46574 21.21726,56.90517 20.67365,86.95093 0.0682,12.31883 -3.86528,23.70912 -10.33682,33.44267 -5.67512,9.32341 -11.55293,14.39048 -18.84951,18.8495 -14.4463,8.81488 -22.72799,13.98386 -26.14608,13.37707 z"
       inkscape:connector-curvature="0"
       sodipodi:nodetypes="ccccccccccc" />
  </g>
  <g
     inkscape:groupmode="layer"
     id="layer4"
     inkscape:label="tophair"
     sodipodi:insensitive="true">
    <path
       style="fill:#214e96;fill-opacity:0.67264572;stroke:#000000;stroke-width:3;stroke-linecap:butt;stroke-linejoin:round;stroke-miterlimit:4;stroke-opacity:0.36322871;stroke-dasharray:none"
       d="m 331.99448,193.18964 -21.88974,49.25193 -23.71389,17.63341 1.82414,111.88092 -32.22657,76.61412 c -18.91598,-58.86792 -4.34506,-135.43175 -14.59316,-213.42503 2.81917,-21.80264 -2.68134,-45.87427 16.41731,-63.23705 5.05213,-14.99098 20.69448,-28.58266 46.81974,-32.22657 32.40424,0.98288 59.82028,3.96104 68.10142,14.59317 l 31.01048,33.44267 c 10.07285,28.34258 15.66581,51.30929 17.63341,69.92557 -15.91727,70.23249 -45.0606,65.11828 -58.98071,108.84069 l -13.98512,-58.98071 31.01048,-44.38754 -6.08049,-51.07607 -42.56339,10.94487 z"
       id="path3859"
       inkscape:connector-curvature="0"
       sodipodi:nodetypes="ccccccccccccccccc" />
  </g>
  <g
     inkscape:groupmode="layer"
     id="layer5"
     inkscape:label="features"
     style="display:inline"
     sodipodi:insensitive="true">
    <path
       style="fill:#854040;fill-opacity:1"
       d="m 307.67694,291.23815 c 6.45709,-4.87766 33.41916,-4.78316 42.74219,-15.94848 -2.61509,19.32636 -28.26872,14.52068 -42.74219,15.94845 z M 298.575,276.86646 c -4.71913,-4.53564 5.30541,-44.35341 4.98429,-14.07534 -3.58889,6.18349 9.3617,23.94903 -4.98429,14.07534 z m 36.35569,-32.25 c 15.18416,-3.90079 -0.5459,-11.98899 -10.43258,-0.11515 -4.20082,-1.48218 23.72187,-24.18494 18.21235,-12.15678 5.90482,-4.97934 34.80495,-6.43864 19.19749,-2.23612 -10.92748,-1.5484 -6.40223,7.0374 -8.97726,9.50805 13.72472,-3.65478 -15.75877,10.84728 -18,5 z m 12.75,-7.75 c 3.8921,-11.47518 -13.57027,6.28994 0,0 z m -47.25,-12.30902 c 2.88022,-1.90558 2.3337,3.43479 0,0 z"
       id="path3015-5"
       inkscape:connector-curvature="0"
       sodipodi:nodetypes="ccccccccccccccccc" />
  </g>
</svg>
